<?xml version="1.0" standalone="no"?>
<!DOCTYPE svg PUBLIC "-//W3C//DTD SVG 20010904//EN"
 "http://www.w3.org/TR/2001/REC-SVG-20010904/DTD/svg10.dtd">
<svg version="1.0" xmlns="http://www.w3.org/2000/svg"
 width="75.000000pt" height="51.000000pt" viewBox="0 0 75.000000 51.000000"
 preserveAspectRatio="xMidYMid meet">

<g transform="translate(0.000000,51.000000) scale(0.100000,-0.100000)"
fill="RGB(250,25,34)" stroke="none">
<path d="M136 495 c-58 -21 -88 -46 -114 -95 -27 -54 -28 -89 -2 -172 26 -86
40 -104 67 -88 19 13 19 13 -5 73 -27 69 -25 72 50 82 45 6 48 9 48 36 0 32 3
32 -87 9 -29 -7 -33 -6 -33 12 0 28 62 87 99 94 26 6 31 11 31 35 0 33 -1 33
-54 14z"/>
<path d="M552 374 c-31 -22 -52 -66 -52 -112 0 -46 -20 -60 -45 -32 -16 17
-15 20 6 50 22 29 22 33 9 57 -21 36 -59 46 -146 38 -70 -6 -74 -8 -74 -31 0
-23 2 -24 85 -24 90 0 108 -11 50 -30 -46 -15 -49 -52 -5 -70 42 -17 38 -34
-16 -65 -80 -47 -96 -134 -27 -151 55 -14 143 63 143 126 0 37 31 49 113 43
50 -4 79 -1 112 11 41 16 44 19 34 39 -7 12 -13 23 -14 25 -1 1 -18 -5 -38
-13 -20 -8 -50 -15 -67 -15 l-31 0 30 37 c36 43 41 91 13 116 -23 21 -51 22
-80 1z m32 -78 c-16 -26 -34 -34 -34 -17 0 4 10 21 22 36 26 34 37 17 12 -19z
m-164 -185 c0 -5 -14 -21 -32 -36 -23 -19 -34 -23 -37 -14 -2 7 8 23 23 36 28
24 46 29 46 14z"/>
<path d="M260 266 c0 -62 -43 -79 -63 -26 -8 20 -18 30 -33 30 -31 0 -35 -9
-18 -49 19 -47 39 -61 85 -61 48 0 79 36 79 91 0 35 -3 39 -25 39 -20 0 -25
-5 -25 -24z"/>
</g>
</svg>
